# xmcd
#
# Track frame offsets:
#	150
#	19890
#	37387
#	52085
#	65887
#	95762
#	128335
#	147780
#
# Disc length: 2497 seconds
# Revision: 2
# Processed by: cddbd v1.5.2PL0 Copyright (c) Steve Scherf et al.
# Submitted via: dBpowerAMP V12.0
#
DISCID=7909bf08
DTITLE=Chain - Australian Rythm and Blues
DYEAR=1987
DGENRE=Blues
TTITLE0=Second Wind
TTITLE1=Harmonica
TTITLE2=Toss and Turn
TTITLE3=Judgement
TTITLE4=Grab a Snatch
TTITLE5=Black and Blue
TTITLE6=Messin With Soul
TTITLE7=Slow 2: 30 in the Morning Type Blues
EXTD=
EXTT0=
EXTT1=
EXTT2=
EXTT3=
EXTT4=
EXTT5=
EXTT6=
EXTT7=
PLAYORDER=
